<svg xmlns="http://www.w3.org/2000/svg" viewBox="0 0 800 600" width="800" height="600">
  <defs>
    <linearGradient id="bg" x1="0%" y1="0%" x2="100%" y2="100%">
      <stop offset="0%" style="stop-color:#f8e6c8;stop-opacity:1" />
      <stop offset="100%" style="stop-color:#e6d4b3;stop-opacity:1" />
    </linearGradient>
  </defs>
  <rect width="800" height="600" fill="url(#bg)"/>
  <g transform="translate(400,300)">
    <!-- Islamic geometric pattern -->
    <g fill="#b8924f" opacity="0.3">
      <circle cx="0" cy="0" r="80"/>
      <circle cx="0" cy="0" r="60"/>
      <circle cx="0" cy="0" r="40"/>
    </g>
    <!-- Quran icon -->
    <g fill="#8b5a3c" transform="translate(-30,-25)">
      <rect x="0" y="0" width="60" height="50" rx="4" fill="#8b5a3c"/>
      <rect x="5" y="5" width="50" height="3" fill="#f8e6c8"/>
      <rect x="5" y="12" width="50" height="3" fill="#f8e6c8"/>
      <rect x="5" y="19" width="50" height="3" fill="#f8e6c8"/>
      <rect x="5" y="26" width="50" height="3" fill="#f8e6c8"/>
      <rect x="5" y="33" width="50" height="3" fill="#f8e6c8"/>
      <rect x="5" y="40" width="50" height="3" fill="#f8e6c8"/>
    </g>
    <!-- Trophy icon -->
    <g fill="#b8924f" transform="translate(20,-20)">
      <path d="M0 40 L10 20 L20 40 L15 35 L5 35 Z" fill="#b8924f"/>
      <rect x="8" y="35" width="4" height="5" fill="#b8924f"/>
    </g>
    <!-- Text -->
    <text x="0" y="80" text-anchor="middle" font-family="Arial, sans-serif" font-size="16" fill="#8b5a3c" font-weight="bold">
      Quran Competition
    </text>
    <text x="0" y="100" text-anchor="middle" font-family="Arial, sans-serif" font-size="14" fill="#8b5a3c">
      Results Announced
    </text>
  </g>
</svg>
